<svg xmlns="http://www.w3.org/2000/svg" viewBox="0 0 180 300">
<defs>
<style>.a{fill:none;}.b{fill:#ee1f34;}.b,.c{fill-rule:evenodd;}.c{fill:#26225c;}</style>
</defs>
<title>G20 Indonesia 2022</title>
<metadata
Source="https://g20.org/wp-content/uploads/2022/02/250222-G20-Delegates-Registration-Guideline_v2.pdf">
</metadata>
<rect class="a" width="180" height="300"/>
<path class="b" d="M44.67976,88.11573h-.02213c-.01577,0-.03153-.00145-.04737-.00145v.00145H41.50938v3.2017h.00246a12.64576,12.64576,0,0,0,12.6434,12.54128v-3.10044a9.5425,9.5425,0,0,1-9.54434-9.54108h-.00065v-.00166h.02589a9.5421,9.5421,0,0,1,9.51866,9.54065h6.18642A9.542,9.542,0,0,1,69.86,91.21552h.02582v.00166h-.00108a9.54213,9.54213,0,0,1-9.5439,9.54108v3.10044a12.646,12.646,0,0,0,12.6434-12.54128h.00268v-3.2017H69.88578v-.00145c-.016,0-.03161.00145-.04759.00145h-.02191v.00058a12.64292,12.64292,0,0,0-12.56833,12.30817A12.64279,12.64279,0,0,0,44.67976,88.11631v-.00058Zm15.6645-56.26865-3.10145-3.10051-3.10153,3.10051,3.10153,3.10044,3.10145-3.10044ZM57.24281,63.76489l3.10145-3.10008-3.10145-3.10066L54.1415,60.66481l3.10131,3.10008Zm-3.09639,93.68065,3.10153,3.10109,3.10145-3.10109-3.10145-3.10044-3.10153,3.10044Zm6.19784-75.82722-3.10145-3.10087-3.10153,3.10087,3.10153,3.10044,3.10145-3.10044Zm-6.203,44.35248,3.10153,3.10044,3.10145-3.10044-3.10145-3.10044-3.10153,3.10044Zm25.15431-87.923-3.10145-3.10044-3.10153,3.10044,3.10153,3.10073,3.10145-3.10073ZM90.73673,59.45994l-3.10145-3.1003-3.10153,3.1003,3.10153,3.101,3.10145-3.101ZM12.9215,91.2182v-.0008a9.541,9.541,0,0,1,9.50391,9.53985h.00188l-.00043.001A9.54107,9.54107,0,0,1,12.918,91.2182ZM57.25568,2.39991,60.356,5.49934l-.01541.01541V15.91461a12.64854,12.64854,0,0,1,9.5716,12.08715h.00311v.13568l.00123.04123h-.0008l.00774,6.47832h.00412v3.10051h-.00022v.09735a9.54069,9.54069,0,0,0,9.514,8.81385v.00043h3.08612v19.207a12.64567,12.64567,0,0,1,12.60377,12.606h.0008v.47894a12.65037,12.65037,0,0,1,9.54419,12.25711h.00347A12.6448,12.6448,0,0,1,92.4546,103.84952v.02213a12.64441,12.64441,0,0,1,12.22435,12.59762h.0008v3.10724h-3.38157a9.53953,9.53953,0,0,0-9.23124,8.746v.76021l-.0345-.00065v.00065h.00108c0,.07587-.00434.15007-.00557.22551V151.0263c.00123.07457.00557.14863.00557.22363,0,.07565-.00434.15007-.00557.22529v.34731h-.009a12.64621,12.64621,0,0,1-12.63125,12.06936v-3.10066a9.541,9.541,0,0,0,9.53595-9.21l.00043-.64912a9.53878,9.53878,0,0,0-9.22068-9.21547c-.10516.00268-.20967.00825-.3157.00825v-.015l-.01866.00058v.01273c-.0818,0-.163-.0047-.24439-.00615a9.5401,9.5401,0,0,0-9.14293,9.05867v4.72357h0v.47583l-.00282.00065a12.59073,12.59073,0,0,1-.99006,4.79922h7.21575v3.10355H67.109a12.62664,12.62664,0,0,1-8.30866,4.53415v8.76011H55.69555v-8.76011a12.62647,12.62647,0,0,1-8.30873-4.53415H38.29127V160.775h7.216a12.58946,12.58946,0,0,1-.99021-4.79922l-.00289-.00065v-.47583h0v-4.72357a9.54013,9.54013,0,0,0-9.1425-9.05867c-.082.00145-.1628.00615-.24482.00615v-.01273l-.01866-.00058v.015c-.10559,0-.21032-.00557-.3157-.00825a9.53831,9.53831,0,0,0-9.22039,9.21547l.00014.64912a9.54089,9.54089,0,0,0,9.53595,9.21v3.10066a12.64684,12.64684,0,0,1-12.63147-12.06936h-.00882v-.34767c-.00123-.07529-.0055-.14964-.0055-.22493,0-.07464.00427-.14863.0055-.22305V129.30745c-.00123-.07486-.0055-.1495-.0055-.22471h.00123v-.00065l-.03464.00065v-.76043a9.53962,9.53962,0,0,0-9.23131-8.74579H9.81607v-3.10724h.001a12.64437,12.64437,0,0,1,12.22413-12.59762v-.02213A12.6448,12.6448,0,0,1,9.81607,91.2182h.00369a12.65042,12.65042,0,0,1,9.544-12.25711v-.47894h.001a12.6455,12.6455,0,0,1,12.60362-12.606v-19.207h3.08627v-.00043a9.54069,9.54069,0,0,0,9.514-8.81385v-.09735h-.00043V34.657h.00412l.008-6.47832h-.00087l.001-.0418v-.1351h.00333a12.64838,12.64838,0,0,1,9.5716-12.08715V5.50122L54.153,5.49934l3.10022-3.09943ZM22.44653,81.67719A9.54567,9.54567,0,0,0,13.43545,88.129a12.65183,12.65183,0,0,1,11.2251,8.03216,12.65108,12.65108,0,0,1,7.31028-4.64943v-.32a9.54184,9.54184,0,0,0-9.5243-9.51461Zm.01909-3.169v.00825a9.54192,9.54192,0,0,0,9.50579-9.5392,9.5412,9.5412,0,0,0-9.50579,9.531Zm16.21331,1.60555a12.70719,12.70719,0,0,1-5.14877-5.085,12.704,12.704,0,0,1-5.08664,5.06841,12.71053,12.71053,0,0,1,5.09525,5.08273,12.70122,12.70122,0,0,1,5.14016-5.0661ZM35.07308,68.8409v.11377h.00412a9.53981,9.53981,0,0,0,9.41415,9.53775h.57224a12.67647,12.67647,0,0,1,6.21159-7.88512,12.64056,12.64056,0,0,1-6.66593-11.1109h-.00282l-.00087-.03341-.03732.0008v-.049a9.53964,9.53964,0,0,0-9.49515,9.42608Zm0-18.88558V60.66459a12.6137,12.6137,0,0,1,8.99206-4.33814,9.54572,9.54572,0,0,0-8.99206-6.37114ZM47.647,38.268a12.64563,12.64563,0,0,1-6.6958,10.04193,12.674,12.674,0,0,1,6.25975,7.67986,9.54154,9.54154,0,0,0,6.89571-8.92906A9.54114,9.54114,0,0,0,47.647,38.268Zm6.46827-19.109a9.54344,9.54344,0,0,0-6.3963,8.19612,9.54443,9.54443,0,0,0,6.3963-8.19612Zm3.13248-.563a12.64991,12.64991,0,0,0,9.422,11.96644A9.53778,9.53778,0,0,1,47.82634,30.562a12.6478,12.6478,0,0,0,9.42138-11.966Zm9.52936,8.7591A9.54444,9.54444,0,0,0,60.381,19.159a9.54421,9.54421,0,0,0,6.39609,8.19612Zm6.76762,20.95481a12.67459,12.67459,0,0,0-6.25983,7.67986,9.54134,9.54134,0,0,1-6.89549-8.92906A9.54084,9.54084,0,0,1,66.84906,38.268a12.64531,12.64531,0,0,0,6.69566,10.04193ZM79.423,60.66459V49.95531a9.54558,9.54558,0,0,0-8.99206,6.37114A12.61451,12.61451,0,0,1,79.423,60.66459Zm1.5427,14.36409a12.70454,12.70454,0,0,1-5.14877,5.085,12.70175,12.70175,0,0,1,5.14038,5.0661,12.70838,12.70838,0,0,1,5.0951-5.08273,12.70773,12.70773,0,0,1-5.08671-5.06841Zm11.06454,3.48037a9.5412,9.5412,0,0,0-9.50557-9.53182,9.54174,9.54174,0,0,0,9.50557,9.5392v-.00738Zm9.03018,9.62A9.52182,9.52182,0,0,0,82.5252,91.1918v.32a12.65,12.65,0,0,1,7.31014,4.64943,12.65173,12.65173,0,0,1,11.225-8.03216Zm.51416,3.08836a9.54106,9.54106,0,0,0-9.50412,9.53985h-.00166v.001a9.54122,9.54122,0,0,0,9.50933-9.54007h-.00354v-.0008Zm.00268,25.25187a9.54083,9.54083,0,0,0-9.46311-9.50557,9.54029,9.54029,0,0,0,9.26813,9.50557Zm-12.15152,9.13989a12.67737,12.67737,0,0,1,6.11648-7.60985,12.69088,12.69088,0,0,1-5.672-6.48837,12.65148,12.65148,0,0,1-7.35331,4.69449c.00166.07789.00557.15543.00579.23412H82.524l-.00058.02828a9.54235,9.54235,0,0,0,6.90229,9.14134ZM88.9406,128.701v-.00839a12.6764,12.6764,0,0,1-7.9688-6.18454,12.64353,12.64353,0,0,1-11.00118,6.57032l-.00022.00231-.08158.00036h-.06415a9.53993,9.53993,0,0,0,9.301,9.53515c.08715-.00289.1743-.00593.262-.007V138.608l.02871.00087c.03262-.00022.0648-.00246.09757-.00246v.00492c.064.00036.12751.00347.19108.00492a9.54,9.54,0,0,0,9.22618-9.50542h-.001c0-.08571.00448-.16953.00629-.25458v-.15543l.00412.00022Zm-.0123,14.2585.00325-5.58981a12.70422,12.70422,0,0,1-3.46149,2.797,12.68856,12.68856,0,0,1,3.45823,2.79277ZM68.383,145.24621a12.70618,12.70618,0,0,1,4.97678-5.04049,12.69038,12.69038,0,0,1-5.87824-6.806,12.62608,12.62608,0,0,1-9.96238,5.1986v.00962h-.099v.00825a12.64209,12.64209,0,0,1,10.96285,6.63Zm-8.01292-3.01416a9.54415,9.54415,0,0,0,6.41193,8.48918,9.54388,9.54388,0,0,0-6.41193-8.48918Zm6.49785,13.26728-.00781.94963a9.54108,9.54108,0,0,1-9.52278,8.95018h-.17879a9.541,9.541,0,0,1-9.52264-8.95018l-.008-.94963V153.9771a12.64551,12.64551,0,0,0,9.6056-12.05764h.02871a12.646,12.646,0,0,0,9.60567,12.05764v1.52223ZM54.126,142.23205a9.54293,9.54293,0,0,0-6.41193,8.48918,9.54436,9.54436,0,0,0,6.41193-8.48918Zm-8.01314,3.01416A12.64582,12.64582,0,0,1,57.153,138.61029c-.01309,0-.02539-.00231-.03855-.00231h-.034v-.00246a12.62756,12.62756,0,0,1-10.06595-5.20576,12.69127,12.69127,0,0,1-5.87824,6.806,12.70424,12.70424,0,0,1,4.97656,5.04049Zm-10.7424-6.63a9.53985,9.53985,0,0,0,9.30053-9.53515h-.06372l-.08158-.00036-.00043-.00231A12.64353,12.64353,0,0,1,33.524,122.50808a12.67524,12.67524,0,0,1-7.96858,6.18454l.00022.00839.00369-.00022v.15543c.00181.08505.00651.16888.00651.25458h-.00123a9.53994,9.53994,0,0,0,9.22618,9.50542c.06379-.00145.12715-.00456.19108-.00492v-.00492c.03262,0,.0648.00224.09757.00246l.02871-.00087v.00123c.08773.00108.1751.00412.26225.007Zm-9.80312,4.34328a12.69182,12.69182,0,0,1,3.45823-2.79277,12.70555,12.70555,0,0,1-3.46105-2.797l.00282,5.58981Zm18.979-39.10282A12.651,12.651,0,0,0,32.43,113.12792a9.54172,9.54172,0,0,1-7.28424-9.16752v-.15557a9.54192,9.54192,0,0,1,7.28468-9.21735,12.64982,12.64982,0,0,0,12.11586,9.26921Zm37.51926-9.26921a9.542,9.542,0,0,1,7.28468,9.2167v.15622a9.54215,9.54215,0,0,1-7.28446,9.16752,12.65091,12.65091,0,0,0-12.1163-9.27124,12.65,12.65,0,0,0,12.11608-9.26921ZM66.75106,81.72941h3.12713v.00333a9.51271,9.51271,0,1,1,0,19.02531v3.10088h0v3.097a9.5107,9.5107,0,0,1,.383,19.0149H66.79742a9.54114,9.54114,0,0,1-9.51425,9.53942h-.07052a9.54082,9.54082,0,0,1-9.51381-9.53942H44.23467a9.5107,9.5107,0,0,1,.38318-19.0149v-3.097h0v-3.10088a9.51271,9.51271,0,1,1,0-19.02531v-.00333H47.745a9.50311,9.50311,0,1,1,19.00608,0Zm3.1353-22.233a12.63933,12.63933,0,0,1-6.6655,11.1109,12.67573,12.67573,0,0,1,6.21137,7.88512h.57245a9.53981,9.53981,0,0,0,9.41415-9.53775H79.423V68.84a9.5397,9.5397,0,0,0-9.49537-9.42522v.049l-.03732-.0008-.00058.03341Zm-12.678-12.43691c.00137-.07912.00571-.15789.00571-.23723h-.01193a12.56,12.56,0,0,0-1.32666-5.18138,12.77213,12.77213,0,0,0,1.36586.07587v.00043l.00636-.00043.00673.00043v-.00043a12.769,12.769,0,0,0,1.36586-.07587,12.56,12.56,0,0,0-1.32666,5.18138h-.01193c0,.07934.00434.1581.006.23766-.00166.08014-.006.15868-.006.239h.01193a12.6507,12.6507,0,0,0,9.50477,11.77391c-.00412.1312-.00984.262-.01005.39482h-.00289a9.53747,9.53747,0,1,1-19.07493,0h-.00311c-.00014-.13279-.0055-.26363-.00984-.39482a12.65067,12.65067,0,0,0,9.50456-11.77391h.01193c0-.08057-.00434-.15948-.00571-.23947ZM18.95387,117.99932a12.67628,12.67628,0,0,1,6.11626,7.60985,9.54228,9.54228,0,0,0,6.90273-9.14091l-.001-.02871h.00145c.00036-.07869.00427-.15622.00593-.23412a12.65207,12.65207,0,0,1-7.35375-4.69449,12.6891,12.6891,0,0,1-5.67161,6.48837Zm-5.84048-1.53a9.54015,9.54015,0,0,0,9.26841-9.50557,9.54066,9.54066,0,0,0-9.463,9.50557ZM101.57807,103.855l3.10145,3.10087,3.10153-3.10087-3.10153-3.10044-3.10145,3.10044Zm-88.657,0-3.10131-3.10044L6.71831,103.855l3.10145,3.10087,3.10131-3.10087Zm15.94946,0,3.10131,3.10087,3.10167-3.10087-3.10167-3.10044L28.87053,103.855Zm56.755,0L82.524,100.75458,79.42252,103.855l3.10145,3.10087L85.6255,103.855Zm-9.358,28.43194,3.10145,3.101,3.10153-3.101L79.369,129.18623,76.26755,132.287Zm6.22164,18.963-3.10153-3.10044-3.10153,3.10044,3.10153,3.10051,3.10153-3.10051ZM76.22567,69.08731l-3.10145-3.10051-3.10153,3.10051,3.10153,3.10109,3.10145-3.10109ZM60.34079,103.85994v3.10066a9.54128,9.54128,0,0,1,9.54253,9.47874H69.8831v.06177A9.542,9.542,0,0,1,60.339,106.96H54.15705a9.542,9.542,0,0,1-9.54412,9.54108v-.06177h-.00058a9.5414,9.5414,0,0,1,9.54289-9.47874v-3.10066a12.64592,12.64592,0,0,0-12.64442,12.57939h-.00145v.05273l-.00014.00962h.00014v.00123h-.00014v3.1003h3.19309v-.00333a12.64362,12.64362,0,0,0,12.54562-12.213,12.6438,12.6438,0,0,0,12.54555,12.213v.00333h3.19316v-3.1003h-.00043v-.00123h.00043l-.00043-.009v-.0533h-.001a12.64606,12.64606,0,0,0-12.64442-12.57939ZM41.40321,38.04775,38.3019,34.94731l-3.10167,3.10044,3.10167,3.10073,3.10131-3.10073ZM29.96207,59.45994l-3.10131-3.1003-3.10167,3.1003,3.10167,3.101,3.10131-3.101Zm2.0633,72.827,3.10145,3.101,3.10153-3.101-3.10153-3.10073L32.02536,132.287Zm-.01866,18.963,3.10145,3.10051,3.10153-3.10051-3.10153-3.10044-3.10145,3.10044ZM44.47313,69.08731,41.3716,65.98679l-3.10145,3.10051L41.3716,72.1884Z"/>
<path class="c" d="M7.92889,271.96845V254.52171H3.10776v1.28486l.34116.08325a3.83349,3.83349,0,0,1,.58056.18472,3.01073,3.01073,0,0,1,.38014.19231.82685.82685,0,0,1,.18841.15044l.19253.21589a1.49341,1.49341,0,0,1,.2007.38586,2.07425,2.07425,0,0,1,.09164.71964v14.22979ZM153.18218,234.4748a20.84708,20.84708,0,0,1-8.335,1.6961,21.08835,21.08835,0,0,1-8.43089-1.69675,22.068,22.068,0,0,1-6.8871-4.63641,22.51219,22.51219,0,0,1-4.67315-6.86888,20.3873,20.3873,0,0,1-1.714-8.28494,20.85211,20.85211,0,0,1,1.71722-8.387,22.93792,22.93792,0,0,1,4.68277-6.96688,22.05912,22.05912,0,0,1,6.88508-4.70064,20.8599,20.8599,0,0,1,8.42-1.71375,20.621,20.621,0,0,1,8.3245,1.71375,22.05118,22.05118,0,0,1,6.88653,4.7002,22.90826,22.90826,0,0,1,4.682,6.96731,20.80468,20.80468,0,0,1,1.71867,8.387,20.37808,20.37808,0,0,1-1.71375,8.28392,22.46363,22.46363,0,0,1-4.675,6.86989,22.07768,22.07768,0,0,1-6.8879,4.63706Zm14.67242,3.24111a31.657,31.657,0,0,0,5.07579-6.55108,33.50166,33.50166,0,0,0,3.2686-7.74163,32.0359,32.0359,0,0,0,1.17926-8.71549,32.361,32.361,0,0,0-1.17767-8.70833,33.23841,33.23841,0,0,0-3.26975-7.7937,32.08215,32.08215,0,0,0-5.06863-6.5675,32.58839,32.58839,0,0,0-54.46146,14.36062,32.7853,32.7853,0,0,0,.001,17.42439,32.90123,32.90123,0,0,0,3.29811,7.75183,32.29152,32.29152,0,0,0,5.09322,6.54146,32.38352,32.38352,0,0,0,14.36822,8.26873,33.06924,33.06924,0,0,0,8.73408,1.149,32.4427,32.4427,0,0,0,8.621-1.151,32.46192,32.46192,0,0,0,14.33827-8.26729ZM28.44844,225.64128H48.53289v5.75579c-.17857.16324-.30471.25856-.30427.25856l-.10458.07869a22.33263,22.33263,0,0,1-4.507,2.62751,20.6456,20.6456,0,0,1-8.24624,1.67665,20.872,20.872,0,0,1-8.34-1.67643,21.84073,21.84073,0,0,1-6.81333-4.58868,22.27626,22.27626,0,0,1-4.62513-6.79525,20.17987,20.17987,0,0,1-1.69429-8.19641,20.5965,20.5965,0,0,1,1.69921-8.29622,22.68546,22.68546,0,0,1,4.63048-6.89282,21.84274,21.84274,0,0,1,6.8121-4.64958,20.12893,20.12893,0,0,1,4.95935-1.40969l1.33447-.23636v-.01974c3.38294-.41761,13.13377-.56276,21.06952,9.65941l.474.61028h3.93139V180.84472H55.69758L50.555,186.30738a33.02228,33.02228,0,0,0-6.58616-2.641A32.277,32.277,0,0,0,4.22323,206.18129a32.01577,32.01577,0,0,0-1.167,8.62486,31.68782,31.68782,0,0,0,1.16784,8.63058,32.50539,32.50539,0,0,0,3.26585,7.67972,31.89016,31.89016,0,0,0,5.0457,6.47832,32.07742,32.07742,0,0,0,14.23036,8.191,32.74488,32.74488,0,0,0,8.65112,1.13869,32.12289,32.12289,0,0,0,8.53959-1.1397,32.66388,32.66388,0,0,0,7.69281-3.20936,32.26717,32.26717,0,0,0,6.26366-4.74034l.92916-.99845V215.31106H38.96389L28.44844,225.64128Zm84.246,10.85256L102.179,246.824H61.56041l8.01986-9.18929c.09185-.10559.20584-.2386.34629-.40444q.82017-.97086,2.2172-2.56661c.92772-1.06014,1.98316-2.30522,3.1374-3.70016q1.78853-2.15913,3.79527-4.537,2.00139-2.3722,4.10424-4.86916c1.36131-1.6169,2.722-3.25153,4.04458-4.85824,1.28153-1.55507,2.49833-3.06088,3.61728-4.47513,1.10853-1.40289,2.04775-2.62114,2.79009-3.6214l.09453-.11521a10.182,10.182,0,0,0,1.4068-2.076,6.20837,6.20837,0,0,0,.66033-2.54816c-.002-.525-.041-1.17348-.11521-1.93a11.46379,11.46379,0,0,0-.458-2.21236,11.86956,11.86956,0,0,0-.98268-2.26747,7.22917,7.22917,0,0,0-1.5649-1.90461,8.24007,8.24007,0,0,0-2.43064-1.42423,11.14492,11.14492,0,0,0-3.53736-.65708,6.93455,6.93455,0,0,0-3.20481.79015,9.03879,9.03879,0,0,0-2.78127,2.21229,11.24173,11.24173,0,0,0-1.92718,3.34157,11.61322,11.61322,0,0,0-.71609,4.09506v1.57778H67.35193v-1.57778a22.35655,22.35655,0,0,1,1.51941-8.21811,22.096,22.096,0,0,1,4.10359-6.73276,19.972,19.972,0,0,1,6.11973-4.61674,17.26286,17.26286,0,0,1,7.64283-1.74268A17.51219,17.51219,0,0,1,92.12,183.439a20.0875,20.0875,0,0,1,4.8599,2.33538,22.199,22.199,0,0,1,4.10222,3.48753,20.258,20.258,0,0,1,3.085,4.39926,20.87334,20.87334,0,0,1,1.81913,5.0026,17.97054,17.97054,0,0,1,.38115,5.36755,22.2298,22.2298,0,0,1-.48487,2.96266,19.3261,19.3261,0,0,1-2.07067,5.18985c-.34875.60724-.7524,1.26121-1.18151,1.93369l-.39077.53181-.38766.481-.00369.00224c-.7221.91665-1.55716,1.95647-2.48423,3.09617l-3.21341,3.9546c-1.12285,1.38279-2.33618,2.84622-3.60665,4.34943q-1.878,2.2227-3.72866,4.44432-1.85775,2.22867-3.61626,4.30864-.52161.61751-1.03085,1.21224l28.52626-.00405ZM70.67506,293.8972l.98225-1.17066q.50273-.604,1.01234-1.20689.51358-.6071.98022-1.18216l.8713-1.07266c.26818-.328.498-.61621.6651-.83456l.12194-.12382c.15789-.24012.29957-.47055.424-.68644a5.351,5.351,0,0,0,.3387-.6991,5.76663,5.76663,0,0,0,.22775-.7192,6.52409,6.52409,0,0,0,.13127-.80672,4.98662,4.98662,0,0,0-.10379-1.4622,5.72922,5.72922,0,0,0-.4963-1.36333,5.43361,5.43361,0,0,0-.84056-1.19937,6.05951,6.05951,0,0,0-1.11779-.95151,5.41171,5.41171,0,0,0-1.32442-.63552,4.78786,4.78786,0,0,0-3.55414.24417,5.45083,5.45083,0,0,0-1.66927,1.25839,6.11486,6.11486,0,0,0-1.53207,4.07474v.44936h2.95326v-.44936a3.14451,3.14451,0,0,1,.19311-1.10506,3.06783,3.06783,0,0,1,.51807-.90146,2.48011,2.48011,0,0,1,.74994-.59618,1.87143,1.87143,0,0,1,.85206-.21285,3.03909,3.03909,0,0,1,.96381.1772,2.2118,2.2118,0,0,1,.6544.38376,1.94142,1.94142,0,0,1,.42093.51279,3.11624,3.11624,0,0,1,.26442.60992,3.0666,3.0666,0,0,1,.124.60066c.0209.20114.031.37906.03139.507a1.66835,1.66835,0,0,1-.1759.69461,2.92236,2.92236,0,0,1-.40755.59314q-.30507.41171-.7584.98261c-.302.38441-.63082.78914-.9808,1.21615q-.52888.64149-1.09869,1.31885l-1.115,1.32341q-.54461.647-1.03143,1.23235-.47789.57846-.85062,1.00337c-.25364.28843-.4529.521-.60319.69808-.07623.08961-.1312.15434-.16975.197l-2.13483,2.44279H77.06255v-2.84521h-6.64q.12389-.144.25256-.2961Zm-18.98677,0,.98239-1.17066q.50284-.604,1.012-1.20689.51358-.6071.98059-1.18216l.87116-1.07266c.26811-.328.49774-.61621.66481-.83456l.122-.12382c.15825-.24012.29972-.47055.424-.68644a5.28821,5.28821,0,0,0,.33913-.6991,5.77871,5.77871,0,0,0,.22775-.7192,6.567,6.567,0,0,0,.131-.80672,4.99141,4.99141,0,0,0-.1035-1.4622,5.7294,5.7294,0,0,0-.49637-1.36333,5.437,5.437,0,0,0-.84078-1.19937,6.04719,6.04719,0,0,0-1.11772-.95151,5.41674,5.41674,0,0,0-1.32442-.63552,4.79085,4.79085,0,0,0-3.554.24417,5.4488,5.4488,0,0,0-1.6692,1.25839,6.027,6.027,0,0,0-1.118,1.83569,6.08917,6.08917,0,0,0-.41435,2.239v.44936h2.95348v-.44936a3.14773,3.14773,0,0,1,.193-1.10506,3.06783,3.06783,0,0,1,.51807-.90146,2.481,2.481,0,0,1,.74972-.59618,1.87361,1.87361,0,0,1,.8525-.21285,3.0414,3.0414,0,0,1,.96373.1772,2.21366,2.21366,0,0,1,.6544.38376,1.94424,1.94424,0,0,1,.42093.51279,3.1254,3.1254,0,0,1,.26449.60992,3.08042,3.08042,0,0,1,.1236.60066c.0209.20114.03139.37906.03175.507a1.67393,1.67393,0,0,1-.17626.69461,2.90656,2.90656,0,0,1-.40719.59314q-.30507.41171-.75833.98326c-.302.38376-.63126.78849-.9808,1.2155-.35288.42766-.719.8687-1.09848,1.31885L49.994,291.4649q-.54526.647-1.03165,1.23235-.47789.57911-.85,1.00337c-.254.28843-.45333.521-.60377.69808-.07609.08961-.1312.15434-.17.197l-2.13446,2.44279H58.07578v-2.84521H51.43552q.12422-.144.25278-.2961Zm-15.83982-3.18513a6.06013,6.06013,0,0,1-1.24956,1.84126,5.96907,5.96907,0,0,1-1.85008,1.24305,5.82135,5.82135,0,0,1-4.48844,0,5.91748,5.91748,0,0,1-1.84675-1.24219,6.00826,6.00826,0,0,1-1.25347-1.84393,5.44426,5.44426,0,0,1-.458-2.21626,5.56414,5.56414,0,0,1,.45963-2.2449,6.13747,6.13747,0,0,1,1.2547-1.86852,5.91921,5.91921,0,0,1,1.84661-1.26085,5.70905,5.70905,0,0,1,4.48475.00036,5.91587,5.91587,0,0,1,1.84538,1.26049A6.07784,6.07784,0,0,1,35.847,286.2493a5.55059,5.55059,0,0,1,.4605,2.24469,5.43937,5.43937,0,0,1-.459,2.21807Zm-5.37637,6.68785h.11521a8.9531,8.9531,0,0,0,6.24688-2.5865,8.75263,8.75263,0,0,0,1.391-1.79815,9.1624,9.1624,0,0,0,.89531-2.12253,8.74807,8.74807,0,0,0,.32452-2.39216,8.87091,8.87091,0,0,0-.32264-2.38948,9.244,9.244,0,0,0-.89741-2.14054,8.94748,8.94748,0,0,0-1.39082-1.80133,8.93409,8.93409,0,0,0-12.64463-.00036,8.91037,8.91037,0,0,0-2.62418,6.33172,8.8381,8.8381,0,0,0,.32329,2.39129,8.99312,8.99312,0,0,0,.90559,2.12767,8.89988,8.89988,0,0,0,3.20011,3.17494,9.02838,9.02838,0,0,0,4.47773,1.20545ZM9.02577,293.8972l.982-1.17066q.50306-.604,1.01255-1.20689.51326-.6071.98-1.18216l.87152-1.07266c.268-.328.49753-.61621.665-.83456l.12158-.12382c.15832-.24012.29979-.47055.4244-.68644a5.3404,5.3404,0,0,0,.3387-.6991,5.76663,5.76663,0,0,0,.22775-.7192,6.52583,6.52583,0,0,0,.131-.80672,4.984,4.984,0,0,0-.1035-1.4622,5.72626,5.72626,0,0,0-.49637-1.36333,5.437,5.437,0,0,0-.84078-1.19937,6.04482,6.04482,0,0,0-1.11772-.95151,5.40775,5.40775,0,0,0-1.3242-.63552,4.79134,4.79134,0,0,0-3.55421.24417,5.45139,5.45139,0,0,0-1.6692,1.25839,6.02791,6.02791,0,0,0-1.11779,1.83569,6.08912,6.08912,0,0,0-.41428,2.239v.44936h2.953v-.44936a3.1478,3.1478,0,0,1,.19311-1.10506,3.07263,3.07263,0,0,1,.51807-.90146,2.48011,2.48011,0,0,1,.74994-.59618,1.87274,1.87274,0,0,1,.85228-.21285,3.04188,3.04188,0,0,1,.96381.1772,2.21552,2.21552,0,0,1,.6544.38376,1.94535,1.94535,0,0,1,.42086.51279,3.10942,3.10942,0,0,1,.38831,1.21058c.02069.20114.03117.37906.03161.507a1.68056,1.68056,0,0,1-.176.69461,2.91654,2.91654,0,0,1-.40755.59314q-.30507.41171-.75833.98326c-.30181.38376-.63082.78849-.9808,1.2155-.35288.42766-.719.8687-1.09848,1.31885L7.33126,291.4649q-.54461.647-1.03143,1.23235-.47843.57911-.85018,1.00337c-.254.28843-.45326.521-.60377.69808-.07587.08961-.1312.15434-.17.197L2.54152,297.0385H15.413v-2.84521H8.77314q.12368-.144.25263-.2961Zm157.526-29.38172,2.26848-5.15188,2.2679,5.15188Zm3.10124-10.02081h-4.11712v1.44086l.41168.03341a.94775.94775,0,0,1,.20273.0447c.07363.02459.163.05779.26717.09966a1.72872,1.72872,0,0,1,.29458.15883c.26247.13142.26247.24193.26247.28315a.73719.73719,0,0,1-.01989.14783c-.0162.0771-.0345.16259-.0494.2386l-6.643,15.2947h2.89894l2.31217-5.26441h6.70839l2.19283,4.99479.11644.26963h2.8873l-7.60862-17.4709-.11666-.27086Zm-21.70714,1.31191.34116.08325a3.77531,3.77531,0,0,1,.57976.18472,3.0516,3.0516,0,0,1,.3805.19231.83467.83467,0,0,1,.18862.15044l.19253.21589a1.50168,1.50168,0,0,1,.2007.38586,2.07505,2.07505,0,0,1,.09164.7192v14.23022h2.84607v-17.4471h-4.821v1.28522Zm-7.341,9.115a4.917,4.917,0,0,0-.96439-1.29629,8.70957,8.70957,0,0,0-1.36731-1.021c-.49225-.2948-.9855-.5658-1.46524-.8065q-.74325-.3758-1.47855-.76347a11.72154,11.72154,0,0,1-1.32977-.81988,4.16481,4.16481,0,0,1-.65462-.83362,1.89145,1.89145,0,0,1-.2224-.958,1.93858,1.93858,0,0,1,.15781-.78647,1.64557,1.64557,0,0,1,.45659-.6011,2.75858,2.75858,0,0,1,1.23459-.53369,5.04144,5.04144,0,0,1,1.45526-.00571,8.66389,8.66389,0,0,1,1.53742.37023c.5334.18146,1.04308.37132,1.514.56218l.61838.25343v-2.70706l-.35056-.07956c-.361-.08079-.75529-.15557-1.2053-.227-.43345-.06741-.883-.12057-1.33672-.15825a13.57353,13.57353,0,0,0-1.40007-.041,9.19585,9.19585,0,0,0-1.41295.13445,6.93584,6.93584,0,0,0-1.33693.37313,4.777,4.777,0,0,0-1.19814.68174,3.96454,3.96454,0,0,0-1.59275,3.36862,4.51223,4.51223,0,0,0,1.39393,3.286,7.40258,7.40258,0,0,0,1.30164,1.03642c.4555.28655.93567.56356,1.42691.82335l1.465.77352a13.71189,13.71189,0,0,1,1.346.80773,2.54614,2.54614,0,0,1,.65686.84592,2.39661,2.39661,0,0,1,.24337,1.06383,2.23561,2.23561,0,0,1-1.66847,2.44525,4.5256,4.5256,0,0,1-1.29484.16975,7.58608,7.58608,0,0,1-2.04919-.28,14.626,14.626,0,0,1-2.0403-.74177l-.63292-.28663v2.71054l.35468.07623c.614.13185,1.26417.25321,1.93253.36083a13.19221,13.19221,0,0,0,2.07125.15991,10.69478,10.69478,0,0,0,1.62905-.13322,7.757,7.757,0,0,0,1.66088-.44957,5.87887,5.87887,0,0,0,1.4925-.86559,3.91267,3.91267,0,0,0,1.103-1.40709,4.91353,4.91353,0,0,0,.46621-1.494,5.02219,5.02219,0,0,0-.02336-1.54559,5.19347,5.19347,0,0,0-.493-1.461ZM109.51339,255.839l.33725.07934a2.87479,2.87479,0,0,1,.79652.28887,2.55317,2.55317,0,0,1,.46845.34608.96609.96609,0,0,1,.27144.366,2.6774,2.6774,0,0,1,.1312.6437v14.67386h11.28434v-2.4417h-8.49135V264.5136h7.56508v-2.45646h-7.56508v-4.97128h8.49135v-2.57767H109.47875l.03464,1.33079Zm-9.61934,10.83469-9.62859-11.94633-.13474-.16418-4.0628-.01562V256.046l.43135.01844a1.916,1.916,0,0,1,.83507.18573,1.78,1.78,0,0,1,.45963.33255,1.29256,1.29256,0,0,1,.22327.40365v15.20979H90.4057V259.79415l9.63923,12.177.13431.172h2.0651V254.5625H99.89405v12.11116ZM77.07571,265.764a6.69561,6.69561,0,0,1-1.3919,2.04587,6.6011,6.6011,0,0,1-2.05469,1.38366,6.46651,6.46651,0,0,1-5.00874,0,6.573,6.573,0,0,1-2.05324-1.38264,6.69956,6.69956,0,0,1-1.39306-2.04811,6.07491,6.07491,0,0,1-.51315-2.47721,6.21871,6.21871,0,0,1,.51358-2.50614,6.81831,6.81831,0,0,1,1.39429-2.07414,6.57692,6.57692,0,0,1,2.053-1.40275,6.23124,6.23124,0,0,1,2.51656-.51271,6.15837,6.15837,0,0,1,2.49016.5138,6.555,6.555,0,0,1,2.05223,1.40166,6.77858,6.77858,0,0,1,1.3945,2.07414,6.21993,6.21993,0,0,1,.51358,2.50614,6.09079,6.09079,0,0,1-.51315,2.47844ZM78.91,258.72518v-.00065a8.94906,8.94906,0,0,0-1.40311-1.81536,9.005,9.005,0,0,0-12.74878-.00065,8.99345,8.99345,0,0,0-2.64718,6.38379,8.90554,8.90554,0,0,0,.32539,2.41017,9.06631,9.06631,0,0,0,.91354,2.14575,8.97164,8.97164,0,0,0,3.22737,3.20054,9.05949,9.05949,0,0,0,2.15573.89691,9.15745,9.15745,0,0,0,2.41921.31838,8.98147,8.98147,0,0,0,2.38478-.31838,9.12361,9.12361,0,0,0,2.15038-.89691,9.02892,9.02892,0,0,0,1.81876-1.39168A8.77933,8.77933,0,0,0,78.91,267.846a9.269,9.269,0,0,0,.90313-2.14285,9.05688,9.05688,0,0,0,.00043-4.82012,9.24207,9.24207,0,0,0-.90356-2.15783Zm-34.96907-1.61206h2.88318a6.58147,6.58147,0,0,1,2.492.46375,5.82039,5.82039,0,0,1,1.95871,1.29513,6.0087,6.0087,0,0,1,1.28609,1.98844,6.751,6.751,0,0,1,.465,2.53233,6.84164,6.84164,0,0,1-.4652,2.55352A5.76211,5.76211,0,0,1,49.31314,269.23a6.47144,6.47144,0,0,1-2.48908.4699H43.94089V257.11313ZM47.21382,272.264a8.273,8.273,0,0,0,2.31318-.32062,8.58142,8.58142,0,0,0,2.06981-.89944,8.73885,8.73885,0,0,0,1.75027-1.38691,8.85508,8.85508,0,0,0,1.34713-1.79924,9.42611,9.42611,0,0,0,.866-2.11595,8.84987,8.84987,0,0,0,.313-2.34913,8.75679,8.75679,0,0,0-.313-2.34225,9.2702,9.2702,0,0,0-.868-2.1043,8.64705,8.64705,0,0,0-1.34677-1.784,8.75324,8.75324,0,0,0-1.748-1.37917,8.62653,8.62653,0,0,0-2.06988-.90146,8.35638,8.35638,0,0,0-2.31376-.31917H41.99389l-2.91514.06437v1.29549l.33624.08672a4.12393,4.12393,0,0,1,.60189.198,1.90543,1.90543,0,0,1,.34955.19644.98788.98788,0,0,1,.18494.16273c.06582.08.13163.15687.21813.25422a.97108.97108,0,0,1,.18638.30225,2.21323,2.21323,0,0,1,.13879.58858V272.264Zm-17.36473-.12093h2.06554V254.5625H29.56435v12.11094l-9.628-11.9459-.1351-.16461-4.06258-.01541V256.046l.43113.01823a1.92625,1.92625,0,0,1,.83521.18595,1.79118,1.79118,0,0,1,.45927.33255,1.29837,1.29837,0,0,1,.22363.40365v15.20979h2.388V259.79415l9.6393,12.177Z"/>
</svg>